#!OML:ASF F:\VICON\USERDATA\INSTALL\rory3\rory3.ASF
:FULLY-SPECIFIED
:DEGREES
29
root -0.6064118943622956 17.187969807159977 5.515898034383172 2.02861436685655 4.699702147462471 1.5805944161438203
lfemur 5.277278391312077 -5.025284711296969 -29.860782880641878
ltibia 19.87086890031923
lfoot -20.976992091324902 -0.6590384545082184
ltoes -0.4638560240033378
rfemur -47.26308296867761 -9.440660321358699 18.610971091751235
rtibia 137.77474045563923
rfoot 13.690884176435105 -6.4319204387442745
rtoes 4.497476405461707
lowerback nan 0.6929111232680205 -4.517123529733306
upperback 0.81429584017563 -0.1993679409166318 0.5327878084369124
thorax -8.955405125873437 0.26078673254427776 3.1521343261529458
lowerneck -20.372101957606905 -4.378222736566432 -1.310097788168163
upperneck 10.420742736800495 -6.17728472823652 4.273768343378013
head 7.04667998431306 -2.4044147108254363 0.9400440676120548
lclavicle 2.2728144149835607e-14 1.32667831712356e-14
lhumerus -43.87998247431737 -18.711697894675954 99.68012700749955
lradius 111.99628892481286
lwrist 36.941531991261414
lhand -22.863427723710736 2.2868097964498832
lfingers nan
lthumb 3.6189975098193763 32.45199342834537
rclavicle 2.2774582944411423e-14 1.3499857218406674e-14
rhumerus -59.17606395791653 10.416461468595605 -103.16282084688527
rradius 102.28226774056431
rwrist -3.9839806999328964
rhand -17.610049394468295 nan
rfingers nan
rthumb 8.67538611529537 7.838235931909873
30
root -0.5962689948323057 17.157834363210636 7.050766330733278 1.5151022520264745 5.591032493466103 1.7071704214290024
lfemur 6.773839877560487 -4.581317049166333 -30.555557495377016
ltibia 20.516319774258427
lfoot -21.209161634054073 -2.286178355095042
ltoes -3.098565530590996
rfemur -46.927116745674326 -10.982442478332258 18.15246430352592
rtibia 142.19178156879116
rfoot 13.769437212918923 -7.804332456844241
rtoes 4.1771800554354215
lowerback nan 0.38205338968491626 -4.4146637001100295
upperback 0.9941482320487922 -0.5187777770250437 0.32839347888867243
thorax -9.469142900570299 -0.0005461907909329877 3.1427365995591163
lowerneck -20.933635578083766 -4.422139356762689 -1.0105711245031095
upperneck 10.630264980020753 -6.249572494754002 4.347698492313698
head 7.150095739654933 -2.4395245177180884 0.9056408400939302
lclavicle -1.4017252865994269e-14 1.6270023835653425e-14
lhumerus -43.24811392330488 -20.02609322514683 99.99575961196003
lradius 111.90028163484286
lwrist 36.5514935354139
lhand -22.827054248529933 2.487857574121598
lfingers nan
lthumb 3.6607510575638518 32.661890861790724
rclavicle -1.4941115526592787e-14 1.579454947941932e-14
rhumerus -59.36262815468275 9.761791938591163 -103.40270680921762
rradius 101.52013447814221
rwrist -3.0777140566091816
rhand -18.26135677672519 nan
rfingers nan
rthumb 8.011215863880908 7.91404554795871
31
root -0.5828295283187772 17.1254017154024 8.489840074796886 1.5827283892165314 5.844363706669785 1.6365046430010297
lfemur 8.259373630990577 -4.433780838342992 -30.709969159085453
ltibia 21.60602158868895
lfoot -21.68144516608346 -2.657355093441388
ltoes -4.733329986701953
rfemur -46.84388406472372 -11.738841495477937 17.8990790384374
rtibia 146.3820572320338
rfoot 13.770343360897364 -9.46364196684863
rtoes 2.253579941529563
lowerback nan 0.2906459823906411 -4.3690073958232425
upperback 0.928776006392114 -0.5899566987836484 0.2813196357028067
thorax -9.615154950531766 -0.1538583250774742 3.369426374176501
lowerneck -20.351347009263844 -4.441631380606385 -1.0084127980719695
upperneck 10.334158427532527 -6.2878441412609485 4.5586820921363715
head 7.014390161106272 -2.43801198480434 0.9927198085505616
lclavicle -2.0356063513521937e-14 1.8188391056104544e-15
lhumerus -42.96231541903498 -21.01696745407986 100.36609755421382
lradius 112.02705866831222
lwrist 35.838943404872104
lhand -22.518185397394994 2.484887083848377
lfingers nan
lthumb 3.9499968765087363 32.647579029835214
rclavicle -2.113996177150635e-14 2.068664561738317e-15
rhumerus -59.76859659065526 9.245841878325134 -103.73200103346882
rradius 100.70524745710551
rwrist -4.082806525686843
rhand -18.43254846677603 nan
rfingers nan
rthumb 7.830720585157405 7.750352860600268
32
root -0.5669462517304873 17.09610195043701 9.400628845221066 1.290793237338729 5.991781757508461 1.5962276802088908
lfemur 9.453919874655114 -4.462557530988226 -30.80697481214002
ltibia 23.286724452181563
lfoot -21.410258167920336 -3.282504045612941
ltoes -0.640124064712376
rfemur -46.43797755908111 -12.335706039015832 17.728525617525577
rtibia 150.43581224260538
rfoot 13.911648968016383 -11.292518675707225
rtoes 6.224203597687661
lowerback nan 0.19028941431218294 -4.138194933905261
upperback 0.8862701667739594 -0.6715175749151141 0.14088963561958967
thorax -10.104536296332533 -0.29274643364904374 3.4335807146458164
lowerneck -19.62963061878229 -4.4623782802445895 -0.9956286300975716
upperneck 10.003586242513126 -6.3624769758766355 4.800256311838721
head 6.846450737689924 -2.4950054451862815 1.0993141969991738
lclavicle -1.2376683072967942e-14 1.1194793735221852e-15
lhumerus -42.468710754707644 -22.203834988933302 100.58298407681366
lradius 112.20139276935396
lwrist 35.1805326445347
lhand -22.65682482015208 2.2033333692859367
lfingers nan
lthumb 3.803988483001846 32.3673913985543
rclavicle -1.2877216712878866e-14 1.5784401545908437e-15
rhumerus -60.259709794304044 8.54707642786506 -104.20158417415932
rradius 99.87809691374345
rwrist -7.344120536034868
rhand -12.87558975909308 nan
rfingers nan
rthumb 12.876039010411912 14.40243374125112
33
root -0.5231107216503286 17.06732308239107 10.794618056992705 0.9748108565788685 6.541747821893333 1.5398016857287917
lfemur 10.221985959733267 -5.013636702802787 -30.91558966571481
ltibia 25.527446975787495
lfoot -22.238690715183587 -4.570466157118891
ltoes 7.2723711085204705
rfemur -45.717294144054286 -13.148454093946254 17.52487049884249
rtibia 154.22578494680516
rfoot 12.798935814263027 -12.008161632857691
rtoes 2.9190788002725077
lowerback nan -0.1339847530696694 -3.5394340079817987
upperback 0.9220873248597727 -0.9628436261223896 0.03476679569839636
thorax -10.635692472767339 -0.5481119457724488 3.3977921336185224
lowerneck -19.65097898413023 -4.4978182092070575 -1.177430193591368
upperneck 10.122566043830682 -6.402880259751095 5.037167413530238
head 6.911100172143854 -2.4946560626981706 1.2118101772111975
lclavicle -2.7397527575971233e-14 4.45270961685148e-15
lhumerus -41.64321676351728 -23.18246871649672 100.7731691198137
lradius 112.2724808951921
lwrist 34.79766103691621
lhand -22.994332441891224 1.865296562561906
lfingers nan
lthumb 3.480168430696293 32.02962782673719
rclavicle -2.769080424171198e-14 4.729107692822847e-15
rhumerus -60.8362684251224 7.794165669778463 -104.34084246053764
rradius 99.1319075863034
rwrist -8.704542351410447
rhand -20.482717534357672 nan
rfingers nan
rthumb 5.7439441478202165 6.501327694401594
